<svg width="40" height="40" viewBox="0 0 40 40" fill="none" xmlns="http://www.w3.org/2000/svg">
<path d="M22 29H18M26 16C26 14.4087 25.3679 12.8826 24.2427 11.7574C23.1174 10.6321 21.5913 10 20 10C18.4087 10 16.8826 10.6321 15.7574 11.7574C14.6322 12.8826 14 14.4087 14 16C14 19.0902 13.2205 21.206 12.3497 22.6054C11.6151 23.7859 11.2479 24.3761 11.2613 24.5408C11.2763 24.7231 11.3149 24.7926 11.4618 24.9016C11.5945 25 12.1926 25 13.3889 25H26.6112C27.8074 25 28.4056 25 28.5382 24.9016C28.6852 24.7926 28.7238 24.7231 28.7387 24.5408C28.7522 24.3761 28.3849 23.7859 27.6504 22.6054C26.7795 21.206 26 19.0902 26 16Z" stroke="#868B90" stroke-width="2" stroke-linecap="round" stroke-linejoin="round"/>
<circle cx="12" cy="12" r="5.5" fill="#FD5858" stroke="#FFEEEE"/>
</svg>
